<?xml version="1.0" encoding="UTF-8"?>
<!DOCTYPE svg PUBLIC "-//W3C//DTD SVG 1.1//EN" "http://www.w3.org/Graphics/SVG/1.1/DTD/svg11.dtd">
<!-- Creator: CorelDRAW 2020 (64-Bit) -->
<svg xmlns="http://www.w3.org/2000/svg" xml:space="preserve" width="1053px" height="177px" version="1.1" style="shape-rendering:geometricPrecision; text-rendering:geometricPrecision; image-rendering:optimizeQuality; fill-rule:evenodd; clip-rule:evenodd"
viewBox="0 0 935.42 157.41"
 xmlns:xlink="http://www.w3.org/1999/xlink"
 xmlns:xodm="http://www.corel.com/coreldraw/odm/2003">
 <defs>
  <style type="text/css">
   <![CDATA[
    .str0 {stroke:#373435;stroke-width:2.1;stroke-miterlimit:22.9256}
    .fil6 {fill:none}
    .fil3 {fill:#FEFEFE}
    .fil5 {fill:#373435}
    .fil4 {fill:#ED3237}
    .fil2 {fill:black}
    .fil1 {fill:#FEFEFE;fill-rule:nonzero}
    .fil0 {fill:red;fill-rule:nonzero}
   ]]>
  </style>
   <clipPath id="id0">
    <path d="M61.87 0c34.17,0 61.87,27.7 61.87,61.87 0,22.44 -11.95,42.09 -29.83,52.94l9.81 42.05 -85.78 0.55 11.66 -42.74c-17.75,-10.88 -29.6,-30.45 -29.6,-52.8 0,-34.17 27.7,-61.87 61.87,-61.87z"/>
   </clipPath>
 </defs>
 <g id="Capa_x0020_1">
  <metadata id="CorelCorpID_0Corel-Layer"/>
  <g id="_1933620323984">
   <polygon class="fil0" points="257.02,38.79 257.02,54.51 284.55,54.51 284.55,65.56 257.02,65.56 257.02,87.22 243.25,87.22 243.25,27.75 288.2,27.75 288.2,38.79 "/>
   <path id="1" class="fil0" d="M313.77 40.83c7.09,0 12.52,1.69 16.32,5.06 3.79,3.37 5.69,8.45 5.69,15.25l0 26.08 -12.4 0 0 -5.69c-2.5,4.25 -7.14,6.37 -13.94,6.37 -3.51,0 -6.55,-0.59 -9.13,-1.78 -2.58,-1.19 -4.55,-2.83 -5.91,-4.93 -1.36,-2.09 -2.04,-4.47 -2.04,-7.14 0,-4.24 1.6,-7.59 4.8,-10.02 3.2,-2.44 8.15,-3.66 14.83,-3.66l10.54 0c0,-2.88 -0.88,-5.11 -2.64,-6.66 -1.75,-1.56 -4.39,-2.34 -7.9,-2.34 -2.43,0 -4.83,0.38 -7.18,1.15 -2.35,0.76 -4.35,1.79 -5.99,3.1l-4.76 -9.26c2.5,-1.76 5.48,-3.12 8.97,-4.08 3.48,-0.97 7.06,-1.45 10.74,-1.45zm-1.01 38.15c2.26,0 4.27,-0.52 6.03,-1.57 1.75,-1.05 3,-2.59 3.74,-4.63l0 -4.67 -9.09 0c-5.44,0 -8.16,1.78 -8.16,5.35 0,1.7 0.66,3.04 1.99,4.04 1.34,0.99 3.16,1.48 5.49,1.48z"/>
   <path id="2" class="fil0" d="M374.78 40.83c4.25,0 8.11,0.98 11.6,2.93 3.48,1.96 6.22,4.71 8.2,8.25 1.98,3.54 2.97,7.66 2.97,12.36 0,4.7 -0.99,8.82 -2.97,12.36 -1.98,3.54 -4.72,6.29 -8.2,8.24 -3.49,1.96 -7.35,2.93 -11.6,2.93 -6.29,0 -11.07,-1.98 -14.36,-5.94l0 5.26 -12.66 0 0 -63.04 13.26 0 0 22.18c3.34,-3.69 7.93,-5.53 13.76,-5.53zm-2.29 36.2c3.4,0 6.19,-1.15 8.37,-3.44 2.18,-2.3 3.27,-5.37 3.27,-9.22 0,-3.85 -1.09,-6.93 -3.27,-9.22 -2.18,-2.29 -4.97,-3.44 -8.37,-3.44 -3.4,0 -6.19,1.15 -8.37,3.44 -2.18,2.29 -3.27,5.37 -3.27,9.22 0,3.85 1.09,6.92 3.27,9.22 2.18,2.29 4.97,3.44 8.37,3.44z"/>
   <path id="3" class="fil0" d="M406.39 41.51l13.25 0 0 45.71 -13.25 0 0 -45.71zm6.63 -6.37c-2.44,0 -4.42,-0.71 -5.95,-2.12 -1.53,-1.42 -2.3,-3.18 -2.3,-5.27 0,-2.1 0.77,-3.85 2.3,-5.27 1.53,-1.42 3.51,-2.12 5.95,-2.12 2.43,0 4.41,0.68 5.94,2.03 1.53,1.36 2.3,3.06 2.3,5.1 0,2.21 -0.77,4.04 -2.3,5.48 -1.53,1.45 -3.51,2.17 -5.94,2.17z"/>
   <path id="4" class="fil0" d="M450.4 40.83c7.08,0 12.52,1.69 16.31,5.06 3.8,3.37 5.7,8.45 5.7,15.25l0 26.08 -12.41 0 0 -5.69c-2.49,4.25 -7.13,6.37 -13.93,6.37 -3.51,0 -6.56,-0.59 -9.14,-1.78 -2.57,-1.19 -4.54,-2.83 -5.9,-4.93 -1.36,-2.09 -2.04,-4.47 -2.04,-7.14 0,-4.24 1.6,-7.59 4.8,-10.02 3.2,-2.44 8.14,-3.66 14.83,-3.66l10.53 0c0,-2.88 -0.88,-5.11 -2.63,-6.66 -1.76,-1.56 -4.39,-2.34 -7.9,-2.34 -2.44,0 -4.83,0.38 -7.18,1.15 -2.35,0.76 -4.35,1.79 -5.99,3.1l-4.76 -9.26c2.49,-1.76 5.48,-3.12 8.96,-4.08 3.49,-0.97 7.07,-1.45 10.75,-1.45zm-1.02 38.15c2.27,0 4.28,-0.52 6.03,-1.57 1.76,-1.05 3.01,-2.59 3.74,-4.63l0 -4.67 -9.09 0c-5.44,0 -8.16,1.78 -8.16,5.35 0,1.7 0.67,3.04 2,4.04 1.33,0.99 3.16,1.48 5.48,1.48z"/>
   <path id="5" class="fil0" d="M512.17 40.83c5.67,0 10.24,1.7 13.72,5.1 3.49,3.4 5.23,8.44 5.23,15.12l0 26.17 -13.26 0 0 -24.13c0,-3.62 -0.79,-6.33 -2.37,-8.11 -1.59,-1.78 -3.88,-2.68 -6.89,-2.68 -3.34,0 -6,1.04 -7.98,3.1 -1.99,2.07 -2.98,5.14 -2.98,9.22l0 22.6 -13.25 0 0 -45.71 12.66 0 0 5.36c1.75,-1.93 3.93,-3.42 6.54,-4.47 2.61,-1.04 5.47,-1.57 8.58,-1.57z"/>
   <path id="6" class="fil0" d="M561.54 40.83c7.08,0 12.52,1.69 16.31,5.06 3.8,3.37 5.69,8.45 5.69,15.25l0 26.08 -12.4 0 0 -5.69c-2.49,4.25 -7.14,6.37 -13.94,6.37 -3.51,0 -6.55,-0.59 -9.13,-1.78 -2.58,-1.19 -4.55,-2.83 -5.91,-4.93 -1.35,-2.09 -2.03,-4.47 -2.03,-7.14 0,-4.24 1.6,-7.59 4.8,-10.02 3.2,-2.44 8.14,-3.66 14.82,-3.66l10.54 0c0,-2.88 -0.88,-5.11 -2.64,-6.66 -1.75,-1.56 -4.39,-2.34 -7.9,-2.34 -2.43,0 -4.83,0.38 -7.18,1.15 -2.35,0.76 -4.34,1.79 -5.99,3.1l-4.76 -9.26c2.5,-1.76 5.48,-3.12 8.97,-4.08 3.48,-0.97 7.06,-1.45 10.75,-1.45zm-1.02 38.15c2.26,0 4.27,-0.52 6.03,-1.57 1.76,-1.05 3,-2.59 3.74,-4.63l0 -4.67 -9.09 0c-5.44,0 -8.16,1.78 -8.16,5.35 0,1.7 0.67,3.04 2,4.04 1.33,0.99 3.15,1.48 5.48,1.48z"/>
   <path id="7" class="fil0" d="M640.05 88.24c-4.71,0 -9.25,-0.63 -13.64,-1.91 -4.39,-1.27 -7.92,-2.93 -10.58,-4.97l4.67 -10.36c2.55,1.87 5.58,3.37 9.09,4.5 3.52,1.13 7.03,1.7 10.54,1.7 3.91,0 6.8,-0.58 8.67,-1.74 1.87,-1.16 2.8,-2.71 2.8,-4.63 0,-1.42 -0.55,-2.6 -1.66,-3.53 -1.1,-0.93 -2.52,-1.69 -4.24,-2.25 -1.73,-0.57 -4.07,-1.19 -7.01,-1.87 -4.54,-1.08 -8.25,-2.15 -11.13,-3.23 -2.89,-1.08 -5.37,-2.8 -7.44,-5.18 -2.07,-2.38 -3.1,-5.55 -3.1,-9.52 0,-3.45 0.93,-6.58 2.8,-9.39 1.87,-2.8 4.69,-5.02 8.46,-6.67 3.76,-1.64 8.37,-2.46 13.8,-2.46 3.8,0 7.51,0.45 11.14,1.36 3.62,0.9 6.79,2.21 9.51,3.91l-4.25 10.45c-5.49,-3.12 -10.99,-4.68 -16.48,-4.68 -3.85,0 -6.7,0.63 -8.54,1.87 -1.84,1.25 -2.76,2.89 -2.76,4.93 0,2.04 1.06,3.56 3.19,4.55 2.12,0.99 5.36,1.97 9.72,2.93 4.54,1.07 8.25,2.15 11.13,3.23 2.89,1.07 5.37,2.77 7.44,5.09 2.07,2.33 3.1,5.47 3.1,9.44 0,3.39 -0.95,6.5 -2.85,9.3 -1.89,2.8 -4.74,5.03 -8.54,6.67 -3.79,1.64 -8.41,2.46 -13.84,2.46z"/>
   <path id="8" class="fil0" d="M695.53 87.9c-4.82,0 -9.14,-1 -12.96,-3.01 -3.82,-2.01 -6.81,-4.8 -8.96,-8.37 -2.16,-3.57 -3.23,-7.62 -3.23,-12.15 0,-4.53 1.07,-8.58 3.23,-12.15 2.15,-3.57 5.14,-6.36 8.96,-8.37 3.82,-2.01 8.14,-3.02 12.96,-3.02 4.81,0 9.12,1.01 12.91,3.02 3.8,2.01 6.77,4.8 8.92,8.37 2.16,3.57 3.23,7.62 3.23,12.15 0,4.53 -1.07,8.58 -3.23,12.15 -2.15,3.57 -5.12,6.36 -8.92,8.37 -3.79,2.01 -8.1,3.01 -12.91,3.01zm0 -10.87c3.4,0 6.19,-1.15 8.37,-3.44 2.18,-2.3 3.27,-5.37 3.27,-9.22 0,-3.85 -1.09,-6.93 -3.27,-9.22 -2.18,-2.29 -4.97,-3.44 -8.37,-3.44 -3.4,0 -6.2,1.15 -8.41,3.44 -2.21,2.29 -3.32,5.37 -3.32,9.22 0,3.85 1.11,6.92 3.32,9.22 2.21,2.29 5.01,3.44 8.41,3.44z"/>
   <path id="9" class="fil0" d="M742.09 47.54c1.58,-2.2 3.72,-3.88 6.41,-5.01 2.69,-1.13 5.8,-1.7 9.31,-1.7l0 12.24c-1.48,-0.12 -2.47,-0.17 -2.98,-0.17 -3.79,0 -6.77,1.06 -8.92,3.18 -2.15,2.13 -3.23,5.31 -3.23,9.56l0 21.58 -13.25 0 0 -45.71 12.66 0 0 6.03z"/>
   <path id="10" class="fil0" d="M783.89 40.83c7.08,0 12.52,1.69 16.32,5.06 3.79,3.37 5.69,8.45 5.69,15.25l0 26.08 -12.41 0 0 -5.69c-2.49,4.25 -7.13,6.37 -13.93,6.37 -3.51,0 -6.56,-0.59 -9.14,-1.78 -2.57,-1.19 -4.54,-2.83 -5.9,-4.93 -1.36,-2.09 -2.04,-4.47 -2.04,-7.14 0,-4.24 1.6,-7.59 4.8,-10.02 3.2,-2.44 8.14,-3.66 14.83,-3.66l10.53 0c0,-2.88 -0.88,-5.11 -2.63,-6.66 -1.76,-1.56 -4.39,-2.34 -7.9,-2.34 -2.44,0 -4.83,0.38 -7.18,1.15 -2.35,0.76 -4.35,1.79 -5.99,3.1l-4.76 -9.26c2.49,-1.76 5.48,-3.12 8.96,-4.08 3.49,-0.97 7.07,-1.45 10.75,-1.45zm-1.02 38.15c2.27,0 4.28,-0.52 6.04,-1.57 1.75,-1.05 3,-2.59 3.73,-4.63l0 -4.67 -9.09 0c-5.44,0 -8.15,1.78 -8.15,5.35 0,1.7 0.66,3.04 1.99,4.04 1.33,0.99 3.16,1.48 5.48,1.48z"/>
   <path id="11" class="fil0" d="M833.26 87.9c-3.8,0 -7.51,-0.46 -11.13,-1.4 -3.63,-0.93 -6.52,-2.11 -8.67,-3.52l4.42 -9.52c2.04,1.3 4.5,2.36 7.39,3.19 2.89,0.82 5.72,1.23 8.5,1.23 5.61,0 8.41,-1.39 8.41,-4.17 0,-1.3 -0.77,-2.23 -2.29,-2.8 -1.53,-0.57 -3.88,-1.05 -7.06,-1.44 -3.74,-0.57 -6.82,-1.22 -9.26,-1.96 -2.43,-0.73 -4.54,-2.04 -6.33,-3.91 -1.78,-1.87 -2.68,-4.53 -2.68,-7.98 0,-2.89 0.84,-5.46 2.51,-7.69 1.67,-2.24 4.11,-3.98 7.31,-5.23 3.2,-1.24 6.98,-1.87 11.34,-1.87 3.23,0 6.45,0.36 9.65,1.06 3.2,0.71 5.84,1.69 7.94,2.94l-4.42 9.43c-4.02,-2.27 -8.41,-3.4 -13.17,-3.4 -2.83,0 -4.95,0.4 -6.37,1.19 -1.42,0.79 -2.13,1.81 -2.13,3.06 0,1.41 0.77,2.4 2.3,2.97 1.53,0.57 3.97,1.11 7.31,1.62 3.74,0.62 6.79,1.28 9.17,1.99 2.38,0.71 4.45,2 6.21,3.87 1.75,1.87 2.63,4.47 2.63,7.81 0,2.84 -0.85,5.36 -2.55,7.57 -1.7,2.21 -4.18,3.92 -7.43,5.14 -3.26,1.21 -7.13,1.82 -11.6,1.82z"/>
   <path id="12" class="fil0" d="M863 41.51l13.25 0 0 45.71 -13.25 0 0 -45.71zm6.62 -6.37c-2.43,0 -4.41,-0.71 -5.94,-2.12 -1.53,-1.42 -2.3,-3.18 -2.3,-5.27 0,-2.1 0.77,-3.85 2.3,-5.27 1.53,-1.42 3.51,-2.12 5.94,-2.12 2.44,0 4.42,0.68 5.95,2.03 1.53,1.36 2.29,3.06 2.29,5.1 0,2.21 -0.76,4.04 -2.29,5.48 -1.53,1.45 -3.51,2.17 -5.95,2.17z"/>
   <path id="13" class="fil0" d="M910.32 87.9c-4.81,0 -9.13,-1 -12.96,-3.01 -3.82,-2.01 -6.81,-4.8 -8.96,-8.37 -2.15,-3.57 -3.23,-7.62 -3.23,-12.15 0,-4.53 1.08,-8.58 3.23,-12.15 2.15,-3.57 5.14,-6.36 8.96,-8.37 3.83,-2.01 8.15,-3.02 12.96,-3.02 4.82,0 9.12,1.01 12.92,3.02 3.79,2.01 6.77,4.8 8.92,8.37 2.15,3.57 3.23,7.62 3.23,12.15 0,4.53 -1.08,8.58 -3.23,12.15 -2.15,3.57 -5.13,6.36 -8.92,8.37 -3.8,2.01 -8.1,3.01 -12.92,3.01zm0 -10.87c3.4,0 6.19,-1.15 8.37,-3.44 2.18,-2.3 3.27,-5.37 3.27,-9.22 0,-3.85 -1.09,-6.93 -3.27,-9.22 -2.18,-2.29 -4.97,-3.44 -8.37,-3.44 -3.4,0 -6.2,1.15 -8.41,3.44 -2.21,2.29 -3.31,5.37 -3.31,9.22 0,3.85 1.1,6.92 3.31,9.22 2.21,2.29 5.01,3.44 8.41,3.44z"/>
   <path class="fil1" d="M797.11 106.45l14.67 0c3.5,0 6.6,0.67 9.29,2.01 2.69,1.34 4.78,3.22 6.27,5.65 1.49,2.43 2.24,5.25 2.24,8.48 0,3.23 -0.75,6.06 -2.24,8.49 -1.49,2.43 -3.58,4.31 -6.27,5.65 -2.69,1.33 -5.79,2 -9.29,2l-14.67 0 0 -32.28zm14.3 26.15c3.23,0 5.8,-0.9 7.72,-2.7 1.93,-1.8 2.89,-4.23 2.89,-7.31 0,-3.07 -0.96,-5.51 -2.89,-7.31 -1.92,-1.8 -4.49,-2.7 -7.72,-2.7l-6.82 0 0 20.02 6.82 0z"/>
   <path id="1" class="fil1" d="M857.02 122.08l6.82 0 0 13.1c-1.75,1.32 -3.78,2.34 -6.08,3.05 -2.31,0.7 -4.63,1.05 -6.97,1.05 -3.35,0 -6.36,-0.71 -9.04,-2.14 -2.67,-1.43 -4.77,-3.41 -6.29,-5.95 -1.52,-2.53 -2.28,-5.4 -2.28,-8.6 0,-3.2 0.76,-6.06 2.28,-8.6 1.52,-2.53 3.63,-4.52 6.34,-5.95 2.71,-1.43 5.75,-2.14 9.13,-2.14 2.83,0 5.4,0.47 7.7,1.43 2.31,0.95 4.24,2.33 5.81,4.15l-4.79 4.42c-2.31,-2.42 -5.09,-3.64 -8.35,-3.64 -2.06,0 -3.89,0.43 -5.49,1.29 -1.6,0.86 -2.84,2.08 -3.73,3.65 -0.89,1.56 -1.34,3.36 -1.34,5.39 0,2 0.45,3.78 1.34,5.35 0.89,1.57 2.13,2.79 3.71,3.67 1.58,0.87 3.39,1.31 5.42,1.31 2.15,0 4.09,-0.46 5.81,-1.38l0 -9.46z"/>
   <path id="2" class="fil1" d="M886.21 139.28c-3.29,0 -6.26,-0.71 -8.92,-2.14 -2.66,-1.43 -4.75,-3.41 -6.28,-5.95 -1.52,-2.53 -2.28,-5.4 -2.28,-8.6 0,-3.2 0.76,-6.06 2.28,-8.6 1.53,-2.53 3.62,-4.52 6.28,-5.95 2.66,-1.43 5.65,-2.14 8.97,-2.14 2.79,0 5.32,0.49 7.58,1.47 2.26,0.99 4.16,2.4 5.7,4.25l-4.8 4.42c-2.18,-2.52 -4.89,-3.78 -8.11,-3.78 -2,0 -3.79,0.44 -5.35,1.32 -1.57,0.87 -2.79,2.09 -3.67,3.66 -0.88,1.57 -1.32,3.35 -1.32,5.35 0,2 0.44,3.78 1.32,5.35 0.88,1.57 2.1,2.79 3.67,3.67 1.56,0.87 3.35,1.31 5.35,1.31 3.22,0 5.93,-1.27 8.11,-3.83l4.8 4.43c-1.54,1.88 -3.45,3.31 -5.72,4.29 -2.28,0.98 -4.81,1.47 -7.61,1.47z"/>
   <polygon id="3" class="fil1" points="935.42,106.45 921.44,138.73 914.06,138.73 900.14,106.45 908.21,106.45 918.03,129.51 927.99,106.45 "/>
  </g>
  <path class="fil2" d="M61.87 0c34.17,0 61.87,27.7 61.87,61.87 0,22.44 -11.95,42.09 -29.83,52.94l9.81 42.05 -85.78 0.55 11.66 -42.74c-17.75,-10.88 -29.6,-30.45 -29.6,-52.8 0,-34.17 27.7,-61.87 61.87,-61.87z"/>
  <g style="clip-path:url(#id0)">
   <g id="_1933620329360">
    <g>
     <path id="1" class="fil3" d="M208.08 -26.04c0.71,5.41 1.08,10.91 1.08,16.49 0,75.37 -66.4,136.46 -148.31,136.46 -81.91,0 -148.31,-61.09 -148.31,-136.46 0,-5.58 0.37,-11.08 1.08,-16.49l294.46 0z"/>
     <path class="fil4" d="M163.4 38.47l0 16.7c-15.68,-9.92 -31.29,-17.67 -46.8,-23.17 -19.68,-7.02 -39.29,-10.49 -58.84,-10.49 -22.31,0 -43.74,3.75 -64.27,11.31 -20.4,7.52 -39.88,18.77 -58.41,33.77l-0.32 0.23 0.06 -14.51c20.93,-18.24 41.2,-31.66 60.93,-40.25 19.74,-8.58 39.95,-12.86 60.69,-12.86 21.11,0 41.36,4.03 60.83,12.03 15.26,6.31 30.64,15.39 46.13,27.24z"/>
     <path class="fil5 str0" d="M64.06 55.09c0.16,0 0.33,0 0.49,0.01 -0.59,1.56 -0.91,3.25 -0.91,5.02 0,7.86 6.38,14.24 14.24,14.24 2.74,0 5.29,-0.77 7.46,-2.11 0.33,1.49 0.5,3.03 0.5,4.62 0,12.03 -9.75,21.78 -21.78,21.78 -12.03,0 -21.78,-9.75 -21.78,-21.78 0,-12.03 9.75,-21.78 21.78,-21.78z"/>
     <path class="fil4" d="M151.53 110.06l0 -14.19c-13.31,8.43 -26.58,15.01 -39.75,19.68 -16.71,5.96 -33.37,8.91 -49.97,8.91 -18.94,0 -37.15,-3.18 -54.59,-9.6 -17.32,-6.4 -33.87,-15.95 -49.61,-28.69l-0.27 -0.19 0.06 12.32c17.77,15.49 34.98,26.89 51.74,34.19 16.77,7.28 33.93,10.91 51.55,10.91 17.92,0 35.13,-3.42 51.66,-10.21 12.96,-5.36 26.03,-13.07 39.18,-23.13z"/>
     <path class="fil5" d="M-86.38 -26.04l294.46 0c0.71,5.41 1.08,10.91 1.08,16.49 0,64.22 -48.22,118.08 -113.16,132.6l-2.09 -8.24c17.88,-10.85 29.83,-30.5 29.83,-52.94 0,-34.17 -27.7,-61.87 -61.87,-61.87 -34.17,0 -61.87,27.7 -61.87,61.87 0,22.35 11.85,41.92 29.6,52.8l-2.32 8.73c-65.74,-13.99 -114.74,-68.21 -114.74,-132.95 0,-5.58 0.37,-11.08 1.08,-16.49z"/>
    </g>
   </g>
  </g>
  <path class="fil6" d="M61.87 0c34.17,0 61.87,27.7 61.87,61.87 0,22.44 -11.95,42.09 -29.83,52.94l9.81 42.05 -85.78 0.55 11.66 -42.74c-17.75,-10.88 -29.6,-30.45 -29.6,-52.8 0,-34.17 27.7,-61.87 61.87,-61.87z"/>
 </g>
</svg>
